#!OML:ASF Y:\EmotionMaleHayes\Project 1\Capture day 1\Session 1\Male1.ASF
:FULLY-SPECIFIED
:DEGREES
475
root -12.8456 16.9556 15.8717 -22.8849 72.0966 -19.1653
lowerback 11.302 2.10843 4.77888
upperback 4.11101 3.5046 1.94844
thorax -1.87068 1.8236 -1.10098
lowerneck -19.9245 5.33735 8.69818
upperneck 26.9718 6.64627 -5.2205
head 12.7899 3.26308 -2.3186
rclavicle -6.05051e-015 2.14687e-014
rhumerus -20.7539 5.91648 -81.253
rradius 36.4404
rwrist 0.196268
rhand -11.5452 -34.4956
rfingers 7.12502
rthumb 14.4952 -63.9693
lclavicle -6.05051e-015 2.14687e-014
lhumerus -37.3549 -0.161612 84.3118
lradius 19.136
lwrist -30.5689
lhand -6.04042 -24.9436
lfingers 7.12502
lthumb 19.7935 4.0686
rfemur 2.45606 -3.37147 20.9214
rtibia 16.5623
rfoot -17.0813 -1.7452
rtoes -0.810471
lfemur -11.7926 8.20048 -12.1328
ltibia 60.3212
lfoot -8.01166 0.582081
ltoes 10.4049
476
root -12.743 16.9749 15.9305 -24.1266 72.2523 -20.3868
lowerback 11.8273 2.33421 5.23741
upperback 3.83288 3.89664 1.92422
thorax -2.39344 2.00117 -1.46472
lowerneck -19.9838 5.22713 8.94137
upperneck 27.2695 6.48459 -5.38993
head 12.926 3.20174 -2.45505
rclavicle 1.9102e-014 -8.94531e-016
rhumerus -20.6212 5.55318 -80.8671
rradius 36.8014
rwrist 0.143001
rhand -11.5071 -33.8741
rfingers 7.12502
rthumb 14.532 -63.3451
lclavicle 1.9102e-014 -8.94531e-016
lhumerus -38.0357 -0.483889 84.0094
lradius 18.9573
lwrist -30.2831
lhand -6.2289 -25.0376
lfingers 7.12502
lthumb 19.6123 3.99311
rfemur 3.49503 -3.67039 21.2426
rtibia 15.6704
rfoot -16.8968 -1.70565
rtoes -1.4357
lfemur -12.8013 8.97384 -12.2081
ltibia 59.3287
lfoot -8.36353 0.894133
ltoes 7.73196
477
root -12.6382 16.991 15.9856 -24.3493 72.6618 -20.6296
lowerback 11.6551 2.45399 5.21713
upperback 3.94465 4.03777 1.89418
thorax -2.17334 2.08034 -1.48865
lowerneck -19.969 5.23023 8.95777
upperneck 27.0985 6.53274 -5.5787
head 12.8654 3.198 -2.52132
rclavicle -3.83157e-014 1.43622e-014
rhumerus -19.7666 5.59213 -80.4035
rradius 37.1054
rwrist -0.459912
rhand -11.249 -33.71
rfingers 7.12502
rthumb 14.7806 -63.1629
lclavicle -3.83157e-014 1.43622e-014
lhumerus -38.2885 -0.514324 83.7799
lradius 18.9426
lwrist -29.7724
lhand -6.20739 -24.996
lfingers 7.12502
lthumb 19.633 4.0326
rfemur 4.48789 -4.37907 20.9317
rtibia 14.7264
rfoot -16.5325 -1.26107
rtoes -1.33062
lfemur -13.903 9.54345 -12.8175
ltibia 58.2765
lfoot -9.06884 1.35862
ltoes 6.18265
478
root -12.5349 17.0053 16.0395 -24.6154 73.0976 -20.9795
lowerback 11.4823 2.52684 5.28359
upperback 3.94338 4.1258 1.81239
thorax -2.06382 2.12716 -1.61077
lowerneck -19.7259 5.20706 8.91302
upperneck 26.9612 6.5495 -5.6254
head 12.761 3.20002 -2.53109
rclavicle -1.05294e-014 -9.98893e-015
rhumerus -18.963 5.70601 -80.1035
rradius 37.2975
rwrist -0.968476
rhand -11.1241 -34.2161
rfingers 7.12502
rthumb 14.901 -63.6601
lclavicle -1.05294e-014 -9.98893e-015
lhumerus -38.8454 -0.471542 83.4064
lradius 19.0389
lwrist -29.2874
lhand -6.34128 -25.0697
lfingers 7.12502
lthumb 19.5043 3.972
rfemur 5.38706 -4.81489 20.7408
rtibia 13.8102
rfoot -16.5355 -1.04967
rtoes -0.321996
lfemur -15.0017 10.0628 -13.4095
ltibia 57.0379
lfoot -9.83919 1.71494
ltoes 6.61201
479
root -12.4327 17.0157 16.094 -24.9255 73.4659 -21.4097
lowerback 11.5459 2.65529 5.39552
upperback 3.78806 4.31092 1.70773
thorax -2.23196 2.21051 -1.81275
lowerneck -19.7354 5.1714 9.02714
upperneck 27.088 6.50362 -5.71483
head 12.8184 3.18392 -2.59394
rclavicle -2.44598e-014 4.24902e-015
rhumerus -18.378 5.69506 -79.8192
rradius 37.5076
rwrist -1.21099
rhand -11.2656 -34.3459
rfingers 7.12502
rthumb 14.7647 -63.8
lclavicle -2.44598e-014 4.24902e-015
lhumerus -39.4068 -0.247588 82.852
lradius 18.976
lwrist -29.0556
lhand -6.93929 -25.3134
lfingers 7.12502
lthumb 18.9292 3.7855
rfemur 6.2232 -5.00448 20.6932
rtibia 12.9492
rfoot -16.724 -1.02067
rtoes 0.777999
lfemur -15.9807 10.6826 -13.9431
ltibia 55.4651
lfoot -10.4011 2.28341
ltoes 5.78802
480
root -12.3284 17.0249 16.1453 -25.1222 73.8953 -21.7219
lowerback 11.1534 2.75653 5.39966
upperback 3.9639 4.41195 1.64939
thorax -1.82208 2.27722 -1.85567
lowerneck -19.9109 5.23304 9.05915
upperneck 26.9615 6.57772 -5.80049
head 12.8147 3.20173 -2.61549
rclavicle -7.72309e-015 1.54431e-014
rhumerus -17.4041 5.82516 -79.3825
rradius 37.8742
rwrist -1.52051
rhand -11.5402 -33.3662
rfingers 7.12502
rthumb 14.5001 -62.8395
lclavicle -7.72309e-015 1.54431e-014
lhumerus -39.4754 0.116283 82.4134
lradius 18.9905
lwrist -28.5957
lhand -7.39341 -25.2502
lfingers 7.12502
lthumb 18.4924 3.89083
rfemur 7.09974 -5.39557 20.4852
rtibia 12.0054
rfoot -16.6311 -0.932589
rtoes 1.13079
lfemur -16.8718 11.2523 -14.6229
ltibia 53.7971
lfoot -10.9607 3.04526
ltoes 2.31354
481
root -12.2232 17.0322 16.1942 -26.0434 74.1842 -22.754
lowerback 11.3131 2.889 5.63672
upperback 3.80269 4.62714 1.62491
thorax -2.04098 2.37472 -2.05319
lowerneck -19.9498 5.19489 8.99637
upperneck 27.0849 6.51839 -5.68102
head 12.8599 3.18774 -2.56935
rclavicle -6.28946e-014 -1.18174e-014
rhumerus -16.998 5.82491 -79.0116
rradius 38.2408
rwrist -1.85375
rhand -11.2632 -34.1601
rfingers 7.12502
rthumb 14.7669 -63.614
lclavicle -6.28946e-014 -1.18174e-014
lhumerus -40.0581 0.0914816 82.0663
lradius 19.1499
lwrist -27.9049
lhand -7.80229 -25.2709
lfingers 7.12502
lthumb 18.0991 3.90699
rfemur 7.96643 -5.83671 20.5369
rtibia 11.113
rfoot -16.5138 -0.793885
rtoes 1.54409
lfemur -17.6631 11.7853 -15.0188
ltibia 52.0576
lfoot -11.3778 3.83119
ltoes -0.875748
482
root -12.116 17.033 16.241 -27.0376 74.3899 -23.8884
lowerback 11.326 3.03527 5.9412
upperback 3.67718 4.85653 1.5891
thorax -2.13259 2.48332 -2.29045
lowerneck -19.9565 5.17294 9.0864
upperneck 27.1444 6.45438 -5.649
head 12.8823 3.17555 -2.58359
rclavicle 1.53748e-015 3.81418e-015
rhumerus -16.482 5.82471 -78.6792
rradius 38.4607
rwrist -2.35218
rhand -11.9731 -32.9929
rfingers 7.12502
rthumb 14.0829 -62.4957
lclavicle 1.53748e-015 3.81418e-015
lhumerus -40.4645 0.0510041 81.679
lradius 19.1928
lwrist -27.1336
lhand -8.12073 -25.4424
lfingers 7.12502
lthumb 17.7927 3.76363
rfemur 8.77403 -6.5002 20.5344
rtibia 10.3277
rfoot -16.3786 -0.342501
rtoes 1.72616
lfemur -18.3472 12.3384 -15.3436
ltibia 49.9974
lfoot -11.581 4.60948
ltoes -0.468476
483
root -12.007 17.0305 16.2878 -27.5114 74.6894 -24.5203
lowerback 11.1176 3.15561 6.02227
upperback 3.65857 5.00702 1.55112
thorax -2.01532 2.56129 -2.37708
lowerneck -19.7811 5.12043 8.8399
upperneck 26.9566 6.41112 -5.4659
head 12.7485 3.15707 -2.47928
rclavicle 3.35232e-014 -9.88954e-015
rhumerus -15.8437 5.93133 -78.267
rradius 38.7523
rwrist -2.84065
rhand -12.4622 -32.1459
rfingers 7.12502
rthumb 13.6115 -61.6809
lclavicle 3.35232e-014 -9.88954e-015
lhumerus -40.7032 0.13253 81.3341
lradius 19.1881
lwrist -26.169
lhand -8.49181 -25.6527
lfingers 7.12502
lthumb 17.4356 3.58538
rfemur 9.51064 -7.13491 20.3213
rtibia 9.65502
rfoot -16.3457 0.136511
rtoes 2.05233
lfemur -19.0533 12.9087 -15.8958
ltibia 47.9249
lfoot -11.9248 4.93708
ltoes 3.62989
484
root -11.9004 17.0285 16.3408 -28.1966 74.9424 -25.391
lowerback 10.9804 3.27441 6.07177
upperback 3.58955 5.16025 1.55552
thorax -1.99568 2.63585 -2.40948
lowerneck -19.8196 5.15237 8.79346
upperneck 26.9701 6.50144 -5.55008
head 12.771 3.18165 -2.48744
rclavicle 9.27455e-015 2.2413e-014
rhumerus -15.2896 5.89126 -77.8457
rradius 39.0832
rwrist -2.9352
rhand -12.564 -32.2035
rfingers 7.12502
rthumb 13.5134 -61.745
lclavicle 9.27455e-015 2.2413e-014
lhumerus -41.0271 0.360455 80.9054
lradius 19.2327
lwrist -25.354
lhand -8.60549 -25.819
lfingers 7.12502
lthumb 17.3262 3.4287
rfemur 10.1758 -7.2177 20.4579
rtibia 9.03176
rfoot -16.5559 0.023383
rtoes 2.59386
lfemur -19.7618 13.5077 -16.3077
ltibia 45.8323
lfoot -12.2907 5.07
ltoes 5.14884
485
root -11.791 17.0239 16.3918 -28.8215 75.1023 -26.1924
lowerback 10.8605 3.42828 6.1708
upperback 3.48497 5.36587 1.53284
thorax -2.01051 2.73427 -2.50494
lowerneck -19.7804 5.21335 9.02775
upperneck 27.0137 6.62927 -5.88019
head 12.8151 3.22271 -2.63301
rclavicle 5.59703e-014 5.1684e-015
rhumerus -14.8605 5.82549 -77.4994
rradius 39.4383
rwrist -3.04745
rhand -12.5981 -32.7954
rfingers 7.12502
rthumb 13.4806 -62.3391
lclavicle 5.59703e-014 5.1684e-015
lhumerus -41.5291 0.494264 80.4642
lradius 19.4522
lwrist -24.6461
lhand -8.37327 -25.7252
lfingers 7.12502
lthumb 17.5497 3.50274
rfemur 10.8762 -7.36029 20.5764
rtibia 8.33562
rfoot -16.5063 -0.0283238
rtoes 1.81026
lfemur -20.2568 14.1069 -16.687
ltibia 43.4116
lfoot -12.524 5.52101
ltoes 3.34768
